<?xml version="1.0" standalone="no"?>
<!DOCTYPE svg PUBLIC "-//W3C//DTD SVG 20010904//EN"
 "http://www.w3.org/TR/2001/REC-SVG-20010904/DTD/svg10.dtd">
<svg version="1.0" xmlns="http://www.w3.org/2000/svg"
 width="774.000000pt" height="234.000000pt" viewBox="0 0 774.000000 234.000000"
 preserveAspectRatio="xMidYMid meet">

<g transform="translate(0.000000,234.000000) scale(0.100000,-0.100000)"
fill="#000000" stroke="none">
<path d="M1065 2173 c-57 -30 -113 -83 -125 -119 -7 -19 -10 -36 -8 -38 1 -1
21 -13 43 -27 22 -14 59 -32 83 -39 39 -12 47 -12 78 5 30 16 34 23 33 54 -1
20 4 50 12 68 12 28 11 34 -6 52 -10 12 -23 21 -28 21 -6 0 -20 9 -31 19 -20
18 -23 18 -51 4z"/>
<path d="M2157 1909 c-9 -6 -17 -15 -17 -20 0 -6 -13 -29 -29 -52 -30 -43
-132 -208 -192 -309 -18 -31 -34 -56 -36 -55 -1 2 13 68 32 148 53 221 46 271
-42 282 -53 6 -83 -13 -83 -53 0 -16 -13 -80 -29 -142 -16 -62 -32 -134 -36
-160 -7 -44 -12 -51 -74 -97 -97 -72 -300 -201 -348 -223 -62 -28 -76 -18 -67
51 3 31 12 71 18 90 11 32 13 33 66 35 78 2 152 40 226 115 60 61 62 64 68
129 8 74 0 91 -66 145 -32 26 -46 30 -110 32 -65 2 -77 -1 -113 -26 -22 -15
-57 -44 -77 -66 -63 -65 -148 -243 -148 -309 0 -13 -27 -45 -74 -87 -41 -37
-77 -67 -80 -67 -13 0 -4 40 33 150 50 148 59 173 87 243 13 32 24 66 24 75 0
9 -19 33 -42 52 -38 31 -49 35 -103 35 l-60 0 -6 -45 c-4 -25 -23 -103 -42
-175 -48 -178 -72 -286 -69 -309 1 -10 -2 -24 -7 -30 -5 -6 -12 -33 -16 -61
-4 -27 -11 -54 -15 -60 -4 -5 -11 -28 -15 -50 -5 -30 -16 -47 -43 -68 -157
-120 -246 -206 -307 -297 -79 -119 -125 -206 -125 -236 0 -12 -5 -35 -10 -50
-18 -46 -1 -120 43 -186 49 -73 101 -109 166 -116 43 -4 51 -1 85 28 24 21 53
66 82 126 24 51 48 96 53 98 9 6 51 133 143 433 l44 142 115 92 c62 50 129
106 147 123 l33 31 32 -37 c37 -44 90 -68 147 -68 66 0 173 67 303 189 31 30
57 51 57 47 0 -12 -30 -117 -42 -148 -7 -20 -7 -35 3 -58 8 -16 17 -30 20 -30
4 0 9 -9 12 -21 3 -11 15 -23 26 -26 12 -3 21 -12 21 -20 0 -10 9 -13 31 -11
25 2 33 9 43 38 12 33 74 124 100 145 7 6 20 30 30 55 9 25 32 70 50 100 19
30 37 66 41 80 4 14 18 41 31 60 13 19 24 38 24 42 0 12 77 140 84 139 4 0 30
-20 57 -44 74 -65 93 -74 126 -56 14 8 28 21 30 29 2 9 12 21 22 27 17 10 15
-5 -15 -149 -34 -162 -57 -250 -76 -300 -7 -20 -7 -35 3 -58 8 -16 17 -30 20
-30 4 0 9 -9 12 -21 3 -11 15 -23 26 -26 12 -3 21 -12 21 -20 0 -10 9 -13 31
-11 25 2 33 9 43 38 12 33 74 124 100 145 7 6 20 30 30 55 9 25 32 70 50 100
19 30 37 66 41 80 4 14 18 41 31 60 13 19 24 38 24 42 0 14 78 140 86 138 5 0
23 -14 39 -29 59 -55 105 -83 125 -78 11 3 18 1 15 -3 -10 -16 -19 -115 -18
-208 0 -76 3 -96 19 -113 24 -28 131 -79 164 -79 40 0 128 60 161 111 16 25
39 55 50 65 21 19 22 19 16 -1 -4 -11 -18 -60 -32 -110 l-25 -90 -88 -79
c-180 -165 -237 -229 -282 -323 -24 -50 -43 -142 -32 -157 4 -6 14 -29 21 -51
8 -22 18 -46 24 -53 21 -26 97 -63 146 -71 48 -8 55 -6 96 23 24 18 56 49 71
71 36 54 91 173 99 217 4 20 35 118 69 216 l61 180 59 48 c86 71 219 210 235
247 8 18 15 41 16 52 1 11 5 31 9 44 6 17 5 22 -4 16 -9 -5 -10 -1 -5 15 6 19
4 22 -9 17 -9 -4 -16 -1 -16 5 0 6 -9 -1 -21 -16 -11 -14 -18 -30 -15 -35 3
-5 -24 -40 -60 -77 -37 -38 -59 -59 -49 -46 29 36 12 35 -28 -2 -38 -35 -54
-71 -19 -45 9 7 6 1 -7 -14 -14 -15 -26 -27 -27 -27 -6 0 16 63 26 75 6 7 8
19 5 27 -3 8 15 79 41 157 46 140 46 142 29 177 -28 60 -106 92 -148 61 -10
-7 -25 -39 -33 -72 -20 -78 -101 -187 -242 -327 -38 -38 -68 -61 -70 -54 -2 7
20 104 48 216 l52 203 -19 26 c-44 59 -151 91 -195 57 -11 -8 -23 -41 -31 -85
-16 -80 -14 -76 -44 -85 -22 -7 -23 -5 -23 61 0 37 -7 86 -14 108 -12 34 -19
40 -40 38 -16 -1 -26 3 -26 11 0 8 -12 14 -27 14 -33 0 -63 -14 -63 -29 0 -6
-13 -29 -29 -52 -30 -43 -132 -208 -192 -309 -18 -31 -34 -56 -36 -55 -1 2 13
68 32 148 53 221 46 271 -42 282 -53 6 -83 -13 -83 -54 0 -38 -32 -159 -42
-159 -4 0 -9 4 -13 9 -3 6 -19 4 -40 -5 -19 -8 -37 -14 -40 -14 -3 0 -5 30 -5
68 0 37 -7 85 -14 107 -12 34 -19 40 -40 38 -16 -1 -26 3 -26 11 0 15 -48 19
-73 5z m-16 -187 c-6 -2 -11 -8 -11 -14 0 -6 -18 -37 -40 -70 -22 -33 -40 -69
-40 -79 0 -24 -34 -59 -57 -59 -13 0 -11 6 10 28 15 15 27 35 27 44 0 9 5 20
10 23 6 4 8 11 5 16 -4 5 -1 9 4 9 6 0 11 8 11 19 0 10 9 30 20 44 11 14 20
30 20 36 0 6 5 11 10 11 6 0 16 12 23 27 l12 28 3 -30 c2 -16 -1 -31 -7 -33z
m660 0 c-6 -2 -11 -8 -11 -14 0 -6 -18 -37 -40 -70 -22 -33 -40 -69 -40 -79 0
-24 -34 -59 -57 -59 -13 0 -11 6 10 28 15 15 27 35 27 44 0 9 5 20 10 23 6 4
8 11 5 16 -4 5 -1 9 4 9 6 0 11 8 11 19 0 10 9 30 20 44 11 14 20 30 20 36 0
6 5 11 10 11 6 0 16 12 23 27 l12 28 3 -30 c2 -16 -1 -31 -7 -33z m-1311 -60
c0 -22 -62 -98 -96 -119 -66 -39 -62 -26 16 52 80 79 80 80 80 67z m1960 -61
c0 -6 -11 -23 -25 -38 l-26 -28 23 37 c25 40 28 43 28 29z m-65 -111 c-3 -5
-11 -10 -16 -10 -6 0 -7 5 -4 10 3 6 11 10 16 10 6 0 7 -4 4 -10z m10 -50
c-16 -16 -31 -28 -34 -25 -2 3 8 19 24 35 16 16 31 28 34 25 2 -3 -8 -19 -24
-35z m-1695 -2 c0 -12 -3 -18 -7 -15 -3 4 -15 -1 -26 -10 -22 -19 -15 -3 12
29 20 23 21 23 21 -4z m206 -66 c-18 -35 -39 -53 -29 -25 10 27 35 64 40 59 3
-2 -3 -18 -11 -34z m660 0 c-18 -35 -39 -53 -29 -25 10 27 35 64 40 59 3 -2
-3 -18 -11 -34z m-877 15 c-2 -1 -15 -11 -29 -22 l-25 -20 19 23 c11 12 24 22
29 22 6 0 8 -1 6 -3z m-589 -23 c0 -20 -79 -94 -100 -94 -8 0 10 25 40 55 30
30 56 55 57 55 2 0 3 -7 3 -16z m500 7 c0 -8 -24 -26 -80 -59 -15 -9 -7 2 18
27 42 40 62 50 62 32z m-521 -94 c-13 -16 -27 -23 -37 -20 -9 4 -13 2 -9 -4 4
-6 -1 -17 -11 -24 -15 -13 -16 -12 -3 4 10 12 10 17 1 17 -6 0 8 15 32 33 47
37 62 33 27 -6z m-139 -67 c0 -5 -5 -10 -11 -10 -5 0 -7 5 -4 10 3 6 8 10 11
10 2 0 4 -4 4 -10z m40 -7 c0 -12 -43 -53 -57 -53 -19 0 -16 10 9 37 20 22 48
31 48 16z m-300 -197 c0 -2 -8 -10 -17 -17 -16 -13 -17 -12 -4 4 13 16 21 21
21 13z m-90 -69 c0 -2 -17 -19 -37 -38 l-38 -34 34 38 c33 34 41 42 41 34z
m25 -43 c-54 -47 -72 -57 -72 -38 0 7 7 14 16 14 9 0 32 14 51 30 49 41 53 37
5 -6z m150 -16 c-21 -100 -136 -448 -147 -442 -4 3 -8 -4 -8 -15 0 -24 -61
-151 -72 -151 -5 0 -4 8 1 17 5 10 16 34 24 53 8 19 27 61 42 93 15 32 25 60
21 64 -3 4 1 15 11 25 9 10 14 18 10 18 -3 0 10 42 28 94 18 51 36 112 40 136
4 24 13 57 20 74 6 17 15 39 18 49 11 29 19 19 12 -15z m2470 -53 c-9 -32 -25
-79 -35 -103 -11 -25 -20 -49 -20 -54 0 -11 -88 -122 -101 -126 -5 -2 -9 30
-9 72 0 42 4 76 9 76 5 0 21 20 35 44 26 45 126 160 132 153 2 -2 -3 -30 -11
-62z m-2725 42 c0 -2 -19 -21 -42 -42 l-43 -40 40 43 c36 39 45 47 45 39z m20
-21 c0 -2 -8 -10 -17 -17 -16 -13 -17 -12 -4 4 13 16 21 21 21 13z m151 -47
c-9 -21 -10 -22 -11 -4 -1 14 -5 10 -16 -15 -13 -33 -14 -33 -8 -5 7 40 37 86
42 64 1 -8 -2 -26 -7 -40z m2640 28 c-10 -9 -11 -8 -5 6 3 10 9 15 12 12 3 -3
0 -11 -7 -18z m-2711 -60 c0 -2 -14 -43 -30 -93 -55 -161 -195 -423 -216 -402
-3 4 -7 49 -8 102 -1 84 1 98 21 123 13 15 35 48 50 73 43 70 91 132 131 167
33 28 52 40 52 30z m44 -73 c-10 -38 -26 -87 -36 -109 -10 -22 -16 -31 -13
-20 4 11 18 62 32 112 31 107 42 119 17 17z m2562 -61 c-8 -15 -15 -25 -16
-21 0 12 23 58 27 54 3 -2 -2 -17 -11 -33z m47 2 c-3 -9 -8 -14 -10 -11 -3 3
-2 9 2 15 9 16 15 13 8 -4z m-2705 -206 c-6 -16 -12 -28 -14 -26 -5 5 13 57
20 57 3 0 0 -14 -6 -31z"/>
<path d="M5947 1909 c-9 -6 -17 -15 -17 -20 0 -6 -13 -29 -29 -52 -28 -41
-124 -196 -191 -309 -19 -32 -35 -56 -37 -55 -1 2 13 68 32 148 53 220 46 273
-37 281 -55 6 -88 -14 -88 -52 0 -16 -13 -80 -29 -142 -16 -62 -32 -134 -36
-160 -7 -44 -12 -51 -74 -97 -97 -72 -300 -201 -348 -223 -63 -28 -75 -18 -67
56 4 33 12 74 18 89 10 26 16 29 66 31 73 2 152 40 214 102 65 65 73 79 80
150 6 57 5 64 -19 93 -50 59 -80 73 -158 76 -65 2 -76 -1 -114 -26 -22 -16
-65 -56 -95 -88 -49 -56 -277 -245 -285 -237 -2 2 10 43 27 91 23 67 30 104
29 156 -1 65 -3 70 -35 99 -19 16 -39 30 -45 30 -16 0 -59 -31 -59 -44 0 -6
-5 -18 -10 -26 -8 -12 -13 -11 -37 11 -48 45 -65 50 -139 40 -60 -9 -72 -15
-112 -53 -98 -95 -188 -235 -228 -354 -36 -108 -33 -134 25 -211 20 -26 32
-33 59 -33 77 0 228 122 294 237 29 51 48 73 48 56 0 -4 -11 -54 -24 -110 -22
-93 -27 -104 -62 -134 -106 -89 -246 -241 -304 -329 -69 -106 -146 -261 -181
-362 -20 -57 -21 -70 -11 -90 8 -13 12 -28 10 -34 -1 -5 8 -31 21 -57 24 -50
47 -66 144 -102 52 -20 65 -17 177 40 93 48 205 294 289 637 22 90 44 182 48
206 7 39 17 50 118 132 l110 89 6 -32 c14 -77 78 -173 133 -198 102 -46 209 0
389 170 31 30 57 51 57 47 0 -12 -30 -117 -42 -148 -7 -20 -7 -35 3 -58 8 -16
17 -30 20 -30 4 0 9 -9 12 -20 3 -11 13 -23 24 -27 10 -4 23 -13 29 -21 18
-25 55 -10 68 28 12 33 74 124 100 145 7 6 20 30 30 55 9 25 32 70 50 100 19
30 37 66 41 80 4 14 18 41 31 60 13 19 24 38 24 42 0 12 77 140 84 139 4 0 30
-20 57 -44 74 -65 93 -74 126 -56 14 8 28 22 31 31 2 9 11 19 19 23 13 4 13 3
4 -8 -21 -26 -91 -245 -91 -286 0 -56 34 -148 67 -183 36 -38 97 -68 136 -68
18 0 58 15 90 34 58 33 88 71 157 201 26 48 28 50 78 55 l52 6 -6 -36 c-5 -31
-1 -42 31 -80 21 -25 42 -47 49 -49 6 -2 17 -12 24 -23 23 -33 85 -15 147 42
17 15 48 39 70 54 l40 26 6 -61 c5 -51 11 -65 38 -89 17 -16 31 -34 31 -39 0
-6 6 -11 14 -11 8 0 16 -6 19 -14 9 -24 67 -25 104 -2 93 57 121 86 201 205
45 68 81 126 79 128 -2 2 -39 -35 -81 -81 -65 -72 -131 -124 -142 -113 -7 7
198 220 240 250 14 10 26 24 26 32 0 8 7 15 15 15 8 0 15 7 15 15 0 23 -16 18
-39 -12 -14 -20 -20 -23 -21 -12 0 9 7 22 15 29 8 7 15 17 15 22 0 6 -77 -65
-172 -157 -95 -92 -174 -163 -176 -156 -6 18 57 252 78 292 11 20 20 49 20 64
0 38 -39 105 -62 105 -10 0 -18 5 -18 10 0 14 -56 12 -68 -2 -10 -13 -66 -146
-76 -184 -5 -18 -122 -131 -188 -183 -17 -13 -17 -11 -3 30 9 24 45 100 82
169 l65 124 -18 35 c-10 19 -31 47 -45 62 -23 25 -35 29 -81 29 l-54 0 -40
-82 c-23 -46 -49 -103 -58 -128 -20 -51 -89 -110 -129 -110 -24 0 -24 2 -29
103 -6 116 -33 198 -80 249 -28 30 -30 30 -102 26 -40 -3 -78 -8 -84 -12 -6
-4 -35 -52 -63 -106 -28 -55 -56 -100 -62 -100 -6 0 -7 3 -4 7 4 3 2 12 -4 19
-8 10 -17 10 -44 -2 -19 -8 -37 -14 -40 -14 -3 0 -5 30 -5 68 0 37 -7 85 -14
107 -12 34 -19 40 -40 38 -16 -1 -26 3 -26 11 0 15 -48 19 -73 5z m530 -111
c-3 -8 -6 -5 -6 6 -1 11 2 17 5 13 3 -3 4 -12 1 -19z m-546 -76 c-6 -2 -11 -8
-11 -13 0 -12 -62 -113 -72 -117 -4 -2 -8 -15 -8 -28 0 -28 -32 -64 -57 -64
-13 0 -10 7 12 30 16 17 25 30 22 30 -4 0 -2 10 5 23 7 12 11 25 10 30 -1 4 3
7 8 7 6 0 10 8 10 19 0 10 9 30 20 44 11 14 20 30 20 36 0 6 5 11 10 11 6 0
16 12 23 27 l12 28 3 -30 c2 -16 -1 -31 -7 -33z m-1365 -4 c4 -13 14 -28 22
-34 10 -7 12 -20 8 -41 -6 -24 -21 -39 -64 -66 -50 -31 -97 -70 -225 -186
l-28 -26 22 50 c31 71 63 119 138 210 65 79 100 114 113 115 4 0 10 -10 14
-22z m1888 0 c13 -52 2 -228 -15 -228 -5 0 -20 17 -34 37 -28 42 -32 88 -9
118 8 11 19 36 25 57 11 43 24 49 33 16z m93 -115 c-2 -21 -4 -6 -4 32 0 39 2
55 4 38 2 -18 2 -50 0 -70z m-30 55 c-3 -7 -5 -2 -5 12 0 14 2 19 5 13 2 -7 2
-19 0 -25z m-1258 -39 c-22 -39 -116 -115 -128 -103 -3 2 28 38 69 79 41 40
76 72 78 70 2 -2 -7 -23 -19 -46z m-305 -14 c-4 -8 -11 -15 -17 -15 -6 0 -20
-8 -31 -19 -21 -18 -86 -60 -76 -49 13 15 116 98 122 98 4 0 5 -7 2 -15z
m-413 -63 c-22 -4 -37 -32 -18 -32 7 0 18 5 25 12 7 7 12 8 12 2 0 -6 -17 -26
-37 -45 -21 -18 -29 -24 -19 -11 25 30 8 28 -40 -4 -39 -26 -39 -26 -16 -2 12
13 22 29 22 34 0 5 16 24 36 42 28 26 39 31 45 20 6 -9 3 -14 -10 -16z m1993
-26 c-3 -14 -10 -26 -14 -26 -5 0 -3 13 3 30 13 35 21 33 11 -4z m-1644 1
c-80 -72 -151 -127 -135 -105 11 16 47 48 80 73 58 43 85 59 55 32z m1528 -99
c2 -4 -11 -35 -29 -69 -33 -62 -72 -99 -123 -119 l-29 -11 6 53 c3 29 22 95
42 146 l37 92 47 -42 c25 -23 47 -46 49 -50z m-928 20 c0 -12 -3 -18 -7 -15
-3 4 -15 -1 -26 -10 -22 -19 -15 -3 12 29 20 23 21 23 21 -4z m1562 -10 c-3
-13 -15 -30 -26 -40 -24 -20 -46 -24 -28 -6 7 7 12 18 12 25 0 17 21 42 37 43
7 0 9 -9 5 -22z m-1356 -56 c-18 -35 -39 -53 -29 -25 10 27 35 64 40 59 3 -2
-3 -18 -11 -34z m799 18 c3 -6 -1 -13 -9 -16 -9 -3 -16 -12 -16 -20 0 -8 -4
-14 -10 -14 -5 0 -7 7 -5 15 3 8 7 22 10 30 5 17 21 20 30 5z m-1015 -4 c0 -2
-12 -12 -27 -21 l-28 -18 19 21 c17 20 36 29 36 18z m-90 -15 c0 -8 -24 -26
-80 -59 -15 -9 -7 2 18 27 42 40 62 50 62 32z m-965 -443 c-41 -195 -188 -503
-245 -512 -8 -1 -25 -7 -37 -14 -41 -22 -46 -16 -40 46 4 43 20 88 70 188 36
72 73 136 82 144 9 8 30 33 47 57 36 54 103 123 118 123 8 0 9 -11 5 -32z m62
-60 c-3 -8 -6 -5 -6 6 -1 11 2 17 5 13 3 -3 4 -12 1 -19z m-296 -31 c-10 -9
-11 -8 -5 6 3 10 9 15 12 12 3 -3 0 -11 -7 -18z m248 -126 c-16 -54 -24 -46
-9 9 6 23 14 40 16 37 3 -3 0 -24 -7 -46z m-68 -188 c-11 -21 -20 -34 -21 -30
0 14 32 78 37 73 2 -2 -5 -21 -16 -43z m-70 -46 c-10 -9 -11 -8 -5 6 3 10 9
15 12 12 3 -3 0 -11 -7 -18z m25 -44 c-8 -15 -15 -22 -16 -15 0 14 22 53 28
47 2 -2 -3 -16 -12 -32z"/>
</g>
</svg>
